<svg id="Слой_1" xmlns="http://www.w3.org/2000/svg" viewBox="0 0 47.9 45"><style>.st0{fill:#ec5f2d}</style><path id="Anchor" class="st0" d="M24 45C13.5 45 5 36.5 5 26c0-.6.4-1 1-1s1 .4 1 1c0 9.4 7.6 17 17 17 .6 0 1 .4 1 1s-.4 1-1 1zm0 0c-.5 0-1-.4-1-.9-.2-2.6 0-33.8 0-35.1 0-.5.5-1 1-1 .6 0 1 .5 1 1 0 .3-.2 32.4 0 34.9.1.6-.4 1.1-1 1.1zM10.9 25.9H1c-.6 0-1-.4-1-1 0-.3.1-.5.3-.7l5-4.9c.2-.2.4-.3.7-.3.3 0 .5.1.7.3l4.8 4.8c.5.3.6.9.2 1.4-.1.3-.4.5-.8.4zm-7.5-2h5.1L6 21.4l-2.6 2.5zM24 10c-2.8 0-5-2.2-5-5s2.2-5 5-5 5 2.2 5 5-2.2 5-5 5zm0-8c-1.7 0-3 1.3-3 3s1.3 3 3 3 3-1.3 3-3-1.3-3-3-3zm0 13c-5.5 0-10-4.5-10-10 0-.6.4-1 1-1s1 .4 1 1c0 4.4 3.6 8 8 8s8-3.6 8-8c0-.6.4-1 1-1s1 .4 1 1c0 5.5-4.5 10-10 10z"/><path id="Anchor_1_" class="st0" d="M22.9 44c0-.6.4-1 1-1 9.4 0 17-7.6 17-17 0-.6.4-1 1-1s1 .4 1 1c0 10.5-8.5 19-19 19-.5 0-1-.4-1-1zm2 .1c0 .5-.5.9-1 .9h-.1c-.6 0-1-.5-.9-1.1m13.3-18.4c-.3-.5-.2-1.1.2-1.4l4.8-4.8c.2-.2.4-.3.7-.3.3 0 .5.1.7.3l5 4.9c.2.2.3.4.3.7 0 .6-.5 1-1 1H37c-.3.1-.6-.1-.8-.4zm5.8-4.1l-2.5 2.5h5.1L42 21.4z"/></svg>