<svg id="Icons" xmlns="http://www.w3.org/2000/svg" viewBox="0 0 144 66.8"><style>.st0{fill:none;stroke:#ec5f2d;stroke-width:2.5;stroke-linecap:round;stroke-linejoin:round;stroke-miterlimit:10}</style><g id="Taxi"><g id="XMLID_695_"><circle id="XMLID_578_" class="st0" cx="38" cy="55.2" r="10"/><circle id="XMLID_592_" class="st0" cx="108" cy="55.2" r="10"/><path id="XMLID_594_" class="st0" d="M98 55.2H48"/><path id="XMLID_9_" class="st0" d="M28 55.2H14.8c-2.7 0-4.8-2.2-4.8-4.8V28.7c0-1.9 1.6-3.5 3.5-3.5H26c3.6 0 7.8-20 29-20h24c12.4 0 24 20 24 20l13 3c17 3.9 17 2.2 18 15 1.1 12 0 12-12 12h-4"/><path id="XMLID_2_" class="st0" d="M10 41.2h8s1.2-10.2-6.8-10.8"/><path id="XMLID_3_" class="st0" d="M131.9 33.4c-7.1-.4-5.9 7.8-5.9 7.8h7"/><path id="XMLID_1_" class="st0" d="M93.7 55.2s.9-4.9 3.3-10.9c2.2-5.9 6-19.1 6-19.1H44s-1.4-7.1 8.7-16.8H68v46.8"/></g></g><path class="st0" d="M44 25.2s-1.8 5.6 5 13.2 5.9 16.8 5.9 16.8m-6-25.4h3.8m21.5-9.5l7.9-7m2.1 6.5l4.2-4.3m-38 4.8l8.6-7.7m0 8.4l4.3-4.2m9.7 13h3.8"/><circle class="st0" cx="38" cy="55.2" r=".9"/><circle class="st0" cx="108" cy="55.2" r=".9"/><path class="st0" d="M87.4 8.5H68"/></svg>