<svg xmlns="http://www.w3.org/2000/svg" viewBox="0 0 1010 731.9633"><path fill="#ec5f2d" d="M926.107 731.963H83.892V713.6c0-35.507-29.392-64.38-65.528-64.38H0V82.78h18.364c36.135 0 65.528-28.89 65.528-64.416V0h842.215v18.364c0 35.525 29.393 64.416 65.529 64.416H1010v566.44h-18.364c-36.136 0-65.529 28.872-65.529 64.38v18.363zm-807.173-36.727h772.131c7.678-41.121 40.584-73.616 82.208-81.112V117.876c-41.624-7.496-74.53-40.01-82.208-81.148H118.934c-7.667 41.138-40.583 73.652-82.207 81.148v496.247c41.624 7.497 74.54 39.992 82.207 81.113z"/><path fill="#ec5f2d" d="M867.628 665.79h-725.3l-5.103-10.079c-12.822-25.376-34.091-46.34-59.897-59.072l-10.24-5.039V140.418l10.258-5.04c25.797-12.678 47.057-33.66 59.87-59.072l5.093-10.097h725.337l5.092 10.08c12.841 25.41 34.146 46.411 59.934 59.089l10.258 5.04V591.6l-10.24 5.04c-25.806 12.732-47.11 33.713-59.952 59.09l-5.11 10.06zm-703.172-36.727h681.06c14.705-24.588 35.758-45.354 60.687-59.862V162.834c-24.947-14.49-46-35.257-60.687-59.897h-681.05c-14.67 24.64-35.705 45.407-60.65 59.897V569.2c24.936 14.51 45.963 35.275 60.64 59.863z"/><path fill="#ec5f2d" d="M505 599.545c-130.428 0-236.54-104.766-236.54-233.545 0-128.797 106.112-233.581 236.54-233.581 130.429 0 236.538 104.784 236.538 233.58 0 128.78-106.11 233.546-236.538 233.546zm0-430.398c-110.172 0-199.812 88.303-199.812 196.853 0 108.53 89.64 196.817 199.812 196.817 110.182 0 199.813-88.286 199.813-196.817 0-108.55-89.631-196.853-199.813-196.853z"/><path fill="#ec5f2d" d="M405.99 489.452l-25.787-26.146 223.77-220.76 25.79 26.148L405.99 489.452zm29.07-132.688c-33.266 0-60.327-26.81-60.327-59.753s27.061-59.753 60.327-59.753 60.328 26.81 60.328 59.753-27.062 59.753-60.328 59.753zm0-82.78c-13.01 0-23.6 10.33-23.6 23.027 0 12.696 10.59 23.026 23.6 23.026 13.01 0 23.6-10.33 23.6-23.026 0-12.697-10.59-23.027-23.6-23.027zm139.86 220.758c-33.266 0-60.309-26.81-60.309-59.753 0-32.944 27.043-59.753 60.31-59.753s60.31 26.81 60.31 59.753-27.043 59.753-60.31 59.753zm0-82.779c-13 0-23.58 10.33-23.58 23.026 0 12.697 10.58 23.027 23.58 23.027 13.003 0 23.584-10.33 23.584-23.027 0-12.697-10.581-23.026-23.583-23.026zm299.254-27.599H773.496v-36.728h100.678v36.728zm-637.671 0H135.827v-36.728h100.676v36.728z"/></svg>