<svg id="dollar-bills" xmlns="http://www.w3.org/2000/svg" viewBox="0 0 1010 934"><style>.st0{fill:#ec5f2d}.st1{fill:none;stroke:#ec5f2d;stroke-width:40;stroke-miterlimit:10}</style><g id="dollar-bills-dollar-bills"><path class="st0" d="M1010 776.3H0v-37.4h1010zm0 74.8H0v-37.4h1010zm0-149.6H0v-37.4h1010zm0-74.8H0V103h1010v523.7zM37.4 589.3h935.2V140.4H37.4v448.9z"/><path class="st0" d="M860.4 551.9h-692v-18.7c0-29.2-9.1-56.1-74.8-56.1H74.8V252.6h18.7c65.8 0 74.8-27 74.8-56.1v-18.7h692v18.7c0 46.4 30.5 56.1 56.1 56.1h18.7V477h-18.7c-25.6 0-56.1 9.7-56.1 56.1v18.8h.1zm-656-37.4h619.9c6.8-46.4 39-67.9 73.5-73.4V288.6c-34.5-5.5-66.8-27-73.5-73.4H204.4c-5.3 34.4-27.3 68.6-92.1 74.1v151.1c64.8 5.5 86.8 39.7 92.1 74.1z"/><path class="st0" d="M505 477.1c-61.9 0-112.2-50.3-112.2-112.2 0-61.9 50.3-112.2 112.2-112.2S617.2 303 617.2 364.9c0 61.8-50.3 112.2-112.2 112.2zm0-187.1c-41.3 0-74.8 33.6-74.8 74.8 0 41.3 33.6 74.8 74.8 74.8 41.3 0 74.8-33.6 74.8-74.8 0-41.2-33.5-74.8-74.8-74.8z"/></g><path class="st1" d="M74.8 31.3l852.6 877.3m-817.5-2.5L953.8 20.5"/></svg>