<svg xmlns="http://www.w3.org/2000/svg" viewBox="0 0 1010 827.5889"><path fill="#ec5f2d" d="M924.207 532.118H485.865c-10.132 0-18.363-8.212-18.363-18.361 0-10.152 8.231-18.364 18.363-18.364h419.978V36.74h-627.86v337.97c0 10.15-8.213 18.362-18.364 18.362-10.132 0-18.363-8.212-18.363-18.363V18.377c0-10.15 8.231-18.364 18.363-18.364h664.588c10.15 0 18.364 8.214 18.364 18.364v495.38c0 10.15-8.215 18.361-18.364 18.361z"/><path fill="#ec5f2d" d="M294.787 459.204c-3.05 0-6.134-.755-8.985-2.332-8.841-4.985-11.979-16.176-7.012-25.025l97.395-173.2a18.406 18.406 0 0 1 16.015-9.362h112.908c10.15 0 18.363 8.214 18.363 18.364s-8.213 18.364-18.363 18.364H402.942L310.8 449.842c-3.371 5.99-9.594 9.362-16.014 9.362zm619.414 61.976c-7.065 0-13.792-4.088-16.822-10.976l-98.633-224.191H678.72c-10.133 0-18.365-8.214-18.365-18.364s8.232-18.364 18.365-18.364h132.006c7.28 0 13.878 4.304 16.822 10.975l103.455 235.167c4.071 9.29-.144 20.123-9.413 24.21a18.693 18.693 0 0 1-7.389 1.543z"/><path fill="#ec5f2d" d="M810.726 286.013c-2.546 0-5.13-.52-7.604-1.65-9.235-4.196-13.307-15.1-9.11-24.318L907.493 10.774c4.196-9.217 15.082-13.324 24.336-9.11 9.217 4.196 13.307 15.1 9.092 24.317L827.439 275.252c-3.067 6.762-9.738 10.76-16.713 10.76zm-418.508 0c-6.582 0-12.93-3.533-16.23-9.738L243.408 27.002c-4.752-8.95-1.363-20.085 7.586-24.838 8.967-4.788 20.085-1.363 24.837 7.586l132.58 249.272c4.753 8.949 1.363 20.085-7.585 24.838a18.226 18.226 0 0 1-8.608 2.152z"/><g fill="#ec5f2d"><path d="M587.349 827.589c-71.338 0-153.76-41.893-219.987-75.572-40.995-20.84-79.713-40.53-97.754-40.53-10.15 0-18.363-8.212-18.363-18.362 0-10.152 8.213-18.364 18.363-18.364 26.829 0 65.475 19.654 114.415 44.546 62.712 31.886 140.775 71.552 203.326 71.552 114.414 0 385.924-151.643 385.924-200.707 0-37.804-16.033-54.698-52.025-54.698-11.622 0-44.188 27.332-67.968 47.273-50.087 42-106.88 89.666-155.551 75.642-9.056-2.582-14.688-11.62-13.003-20.91 2.977-16.499.395-29.374-7.89-39.274-26.344-31.492-102.686-31.383-135.414-31.455h-2.314c-22.38 0-39.65-12.66-59.663-27.329-35.848-26.29-84.95-62.301-202.341-63.95-10.132-.145-18.238-8.467-18.112-18.615.143-10.15 9.092-17.898 18.614-18.113 129.138 1.794 185.95 43.47 223.556 71.051 16.014 11.764 27.599 20.23 37.946 20.23h2.295c40.71.43 126.27-.037 163.606 44.616 11.494 13.774 17.396 30.164 17.646 48.96 30.63-4.914 74.011-41.32 107.026-69.01 37.21-31.202 66.586-55.842 91.567-55.842 56.4 0 88.752 33.319 88.752 91.424 0 81.631-299.826 237.437-422.651 237.437z"/><path d="M259.62 759.19H18.363C8.214 759.19 0 750.977 0 740.827V373.634c0-10.15 8.213-18.363 18.364-18.363H259.62c10.15 0 18.364 8.213 18.364 18.363v367.192c0 10.15-8.213 18.365-18.364 18.365zM36.726 722.463h204.53V391.998H36.726v330.464zm666.059-63.375H435.688c-10.132 0-18.363-8.216-18.363-18.364 0-10.15 8.23-18.366 18.363-18.366h267.097c10.15 0 18.364 8.216 18.364 18.366 0 10.148-8.214 18.364-18.364 18.364z"/><path d="M249.882 459.204H38.628c-10.15 0-18.363-8.215-18.363-18.364 0-10.143 8.213-18.356 18.363-18.356h211.254c10.15 0 18.363 8.213 18.363 18.356 0 10.15-8.213 18.364-18.363 18.364zm0 74.385H38.628c-10.15 0-18.363-8.213-18.363-18.362 0-10.152 8.213-18.365 18.363-18.365h211.254c10.15 0 18.363 8.213 18.363 18.365 0 10.149-8.213 18.362-18.363 18.362zm0 74.315H38.628c-10.15 0-18.363-8.212-18.363-18.364 0-10.148 8.213-18.361 18.363-18.361h211.254c10.15 0 18.363 8.213 18.363 18.361 0 10.152-8.213 18.364-18.363 18.364zm0 74.354H38.628c-10.15 0-18.363-8.215-18.363-18.364 0-10.153 8.213-18.365 18.363-18.365h211.254c10.15 0 18.363 8.212 18.363 18.365 0 10.149-8.213 18.364-18.363 18.364z"/></g><path fill="#ec5f2d" d="M518.88 405.196l-32.153-32.082V.014h210.355v373.1l-32.172 32.082-38.287-19.17-34.718 17.36-34.72-17.36-38.305 19.17zm38.305-60.237l34.72 17.36 34.718-17.36 31.078 15.548 2.655-2.636V36.74H523.452v321.13l2.654 2.636 31.079-15.548z"/></svg>