<svg xmlns="http://www.w3.org/2000/svg" viewBox="0 0 1010 878.084"><path fill="#ec5f2d" d="M228.523 824.714H18.364C8.223 824.714 0 816.5 0 806.35V428.066c0-10.149 8.223-18.363 18.364-18.363h210.16c10.14 0 18.363 8.214 18.363 18.363v378.285c0 10.149-8.222 18.363-18.364 18.363zM36.727 787.986H210.16V446.431H36.727v341.555z"/><path fill="#ec5f2d" d="M584.444 878.084c-71.571 0-160.61-42.036-232.155-75.822-42.752-20.194-86.958-41.067-105.456-41.067-10.141 0-18.363-8.214-18.363-18.364s8.222-18.363 18.363-18.363c26.729 0 68.397 19.672 121.14 44.582 68.226 32.208 153.141 72.306 216.471 72.306 115.274 0 388.83-152.863 388.83-202.304 0-38.18-16.213-55.199-52.583-55.199-11.835 0-39.918 22.955-62.46 41.408-45.622 37.283-97.324 79.588-146.21 65.582-9.074-2.583-14.687-11.639-13.019-20.91 2.547-14.096.5-24.748-6.278-32.568-23.096-26.648-95.656-23.976-134.642-22.578-8.607.323-16.176.593-22.237.593-21.906 0-40.421-11.872-63.87-26.918-41.659-26.738-98.73-63.359-217.53-65.026-10.14-.144-18.246-8.483-18.103-18.615.152-10.15 8.778-18.525 18.624-18.112 129.29 1.828 194.01 43.362 236.844 70.835 18.381 11.8 32.898 21.108 44.035 21.108 5.704 0 12.803-.27 20.91-.555 51.397-1.884 129.102-4.735 163.73 35.203 10.4 11.997 15.834 26.487 16.284 43.22 29.286-3.337 67-34.166 98.202-59.7 33.965-27.762 60.776-49.695 85.72-49.695 56.76 0 89.309 33.499 89.309 91.927 0 82.187-301.89 239.032-425.556 239.032z"/><path fill="#ec5f2d" d="M711.878 698.607H417.665c-10.141 0-18.364-8.212-18.364-18.363 0-10.15 8.223-18.363 18.364-18.363h294.213c10.15 0 18.364 8.213 18.364 18.363s-8.215 18.363-18.364 18.363zm0-178.721c-50.627 0-91.82-41.194-91.82-91.82 0-50.625 41.193-91.817 91.82-91.817 50.626 0 91.816 41.192 91.816 91.817 0 50.626-41.19 91.82-91.816 91.82zm0-146.91c-30.379 0-55.09 24.711-55.09 55.09 0 30.38 24.711 55.092 55.09 55.092 30.378 0 55.09-24.712 55.09-55.092 0-30.378-24.712-55.09-55.09-55.09zm-210.16-21.216c-50.625 0-91.818-41.174-91.818-91.8 0-50.625 41.193-91.818 91.818-91.818s91.82 41.193 91.82 91.818c0 50.626-41.194 91.8-91.82 91.8zm0-146.89c-30.378 0-55.09 24.712-55.09 55.09 0 30.361 24.712 55.073 55.09 55.073 30.379 0 55.09-24.712 55.09-55.073 0-30.378-24.711-55.09-55.09-55.09zm210.16-21.234c-50.627 0-91.82-41.192-91.82-91.818C620.059 41.193 661.252 0 711.879 0c50.626 0 91.816 41.193 91.816 91.818 0 50.626-41.19 91.818-91.816 91.818zm0-146.909c-30.379 0-55.09 24.712-55.09 55.09 0 30.38 24.711 55.093 55.09 55.093 30.378 0 55.09-24.712 55.09-55.092 0-30.378-24.712-55.09-55.09-55.09zM220.283 523.436H21.601c-10.141 0-18.364-8.213-18.364-18.364 0-10.15 8.223-18.363 18.364-18.363h198.682c10.141 0 18.364 8.213 18.364 18.363s-8.223 18.364-18.364 18.364zm0 78.584H21.601c-10.141 0-18.364-8.214-18.364-18.365 0-10.15 8.223-18.363 18.364-18.363h198.682c10.141 0 18.364 8.214 18.364 18.363 0 10.15-8.223 18.365-18.364 18.365zm0 78.511H21.601c-10.141 0-18.364-8.214-18.364-18.364s8.223-18.363 18.364-18.363h198.682c10.141 0 18.364 8.213 18.364 18.363s-8.223 18.364-18.364 18.364zm0 78.583H21.601c-10.141 0-18.364-8.214-18.364-18.363 0-10.15 8.223-18.364 18.364-18.364h198.682c10.141 0 18.364 8.214 18.364 18.364s-8.223 18.363-18.364 18.363z"/></svg>