<svg xmlns="http://www.w3.org/2000/svg" width="38" height="25" viewBox="0 0 38 25"><defs><style>.cls-1{fill:#fff;fill-rule:evenodd}</style></defs><path id="Icon_" data-name="Icon" class="cls-1" d="M573.625 2126A16.658 16.658 0 0 0 557 2142.66a1.267 1.267 0 0 0 .014.15c-.009.15-.014.3-.014.45a7.718 7.718 0 1 0 7.717-7.74 7.649 7.649 0 0 0-4.019 1.13 14.278 14.278 0 0 1 12.927-8.28 1.185 1.185 0 1 0 0-2.37zm20.186 0a16.659 16.659 0 0 0-16.626 16.66 1.27 1.27 0 0 0 .015.15c-.009.14-.015.3-.015.45a7.722 7.722 0 1 0 7.719-7.74 7.628 7.628 0 0 0-4.013 1.13 14.27 14.27 0 0 1 12.92-8.28 1.185 1.185 0 1 0 0-2.37z" transform="translate(-557 -2126)"/></svg>