<svg xmlns="http://www.w3.org/2000/svg" viewBox="0 0 455.862 455.862"><g fill="#f95c3d"><path d="M51.142 337.672c5.349 6.162 14.68 6.821 20.842 1.474l105.6-91.651 40.663 35.292c2.778 2.411 6.231 3.616 9.684 3.616s6.906-1.205 9.684-3.616l40.663-35.292 105.6 91.651c6.162 5.348 15.493 4.688 20.842-1.474 5.349-6.163 4.688-15.494-1.474-20.843l-102.427-88.898 102.427-88.898c6.163-5.349 6.823-14.68 1.474-20.843s-14.682-6.822-20.842-1.474L227.931 252.064 71.984 116.716c-6.162-5.348-15.494-4.687-20.842 1.474-5.349 6.163-4.688 15.494 1.474 20.843l102.427 88.898-102.427 88.898c-6.162 5.349-6.823 14.68-1.474 20.843z"/><path d="M441.088 63.155H14.774C6.615 63.155 0 69.77 0 77.93v300.003c0 8.16 6.615 14.774 14.774 14.774h426.313c8.16 0 14.774-6.614 14.774-14.774V77.93c.001-8.16-6.613-14.775-14.773-14.775zm-14.775 300.003H29.549V92.704h396.765v270.454z"/></g></svg>