<svg xmlns="http://www.w3.org/2000/svg" viewBox="0 0 986.5604 1010"><path fill="#ec5f2d" d="M888.388 1010H98.213C54.752 1010 1.74 971.175.844 925.606c-.6-5.38-1.784-19.01.512-28.442 33.66-138.731 252.894-572.931 262.21-591.34l5.093-10.078h449.255l5.093 10.043c9.326 18.337 228.541 450.636 262.202 589.367 2.313 9.45 1.094 28.388.447 36.081.073 43.703-52.255 78.763-97.268 78.763zM291.264 332.474c-33.678 67.16-224.3 450.097-254.22 573.37-.593 2.582-.28 10.903.384 16.355l.134 2.223c0 24.246 35.284 48.85 60.65 48.85h790.176c26.469 0 60.614-21.125 60.614-43.54.878-11.514 1.075-22.973.502-26.04-29.895-123.13-220.472-504.328-254.168-571.218H291.264zm427.869-67.77H267.448c-10.14 0-18.362-8.223-18.362-18.364s8.221-18.364 18.363-18.364h451.684c10.15 0 18.364 8.223 18.364 18.364s-8.214 18.364-18.364 18.364z"/><path fill="#ec5f2d" d="M493.3 874.532c-10.141 0-18.363-8.213-18.363-18.363V449.613c0-10.141 8.222-18.364 18.363-18.364 10.142 0 18.363 8.223 18.363 18.364V856.17c0 10.15-8.221 18.363-18.363 18.363z"/><path fill="#ec5f2d" d="M656.241 532.94l-325.918-.017c-10.142 0-18.363-8.233-18.363-18.364 0-10.142 8.221-18.364 18.363-18.364l325.918.017c10.133 0 18.364 8.223 18.364 18.365 0 10.15-8.23 18.363-18.364 18.363zm0 135.522H330.323c-10.142 0-18.363-8.232-18.363-18.364 0-10.132 8.221-18.365 18.363-18.365H656.24c10.133 0 18.364 8.233 18.364 18.365 0 10.132-8.23 18.364-18.364 18.364zm0 141.116H330.323c-10.142 0-18.363-8.214-18.363-18.364s8.221-18.363 18.363-18.363H656.24c10.133 0 18.364 8.213 18.364 18.363s-8.23 18.364-18.364 18.364z"/><path fill="#ec5f2d" d="M330.322 659.692h-.008c-10.142 0-18.354-8.231-18.354-18.363l.035-120.1c0-10.131 8.222-18.354 18.364-18.354h.009c10.141 0 18.355 8.231 18.355 18.373l-.036 120.081c0 10.15-8.223 18.363-18.365 18.363zm325.919 149.133c-10.132 0-18.364-8.213-18.364-18.363V650.098c0-10.132 8.232-18.365 18.364-18.365 10.133 0 18.364 8.233 18.364 18.365v140.364c0 10.15-8.23 18.363-18.364 18.363z"/><g fill="#ec5f2d"><path d="M495.13 233.06c-.6 0-1.211-.026-1.82-.09-5.426-.537-133.585-13.808-183.898-64.11-38.457-38.575-38.457-101.315-.017-139.87C328.091 10.283 352.928 0 379.352 0c26.416 0 51.254 10.293 69.931 28.971 50.357 50.312 63.583 178.481 64.12 183.915a18.37 18.37 0 0 1-18.274 20.174zM379.351 36.727c-16.615 0-32.225 6.465-43.972 18.212-24.165 24.236-24.165 63.716.019 87.97 27.93 27.932 96.31 43.803 138.4 50.447-6.636-42.09-22.508-110.46-50.483-138.409-11.747-11.755-27.358-18.22-43.964-18.22z"/><path d="M495.13 233.06a18.348 18.348 0 0 1-12.984-5.38 18.36 18.36 0 0 1-5.29-14.804c.537-5.433 13.835-133.593 64.165-183.905C559.689 10.294 584.527 0 610.96 0c26.414 0 51.252 10.293 69.939 28.971 38.485 38.574 38.485 101.314 0 139.88-50.32 50.311-178.517 63.582-183.95 64.12-.61.063-1.22.09-1.82.09zM610.96 36.727c-16.624 0-32.244 6.465-43.972 18.212-27.959 27.957-43.865 96.319-50.5 138.417 42.108-6.644 110.487-22.524 138.426-50.464 24.194-24.246 24.194-63.708-.018-87.962-11.728-11.738-27.33-18.203-43.936-18.203z"/></g></svg>