<svg id="Слой_1" data-name="Слой 1" xmlns="http://www.w3.org/2000/svg" viewBox="0 0 154.43 141.32"><defs><style>.cls-1,.cls-3,.cls-4{fill:#050505}.cls-1,.cls-2{opacity:.4}.cls-3{fill-rule:evenodd}</style></defs><title>pattern</title><path id="diamond" class="cls-1" d="M47 46.25L43.4 40a2 2 0 0 0-1.21-.94L25 34.36a2 2 0 0 0-1.52.19l-6.24 3.56a2 2 0 0 0-.8 2.62L26 58.81a2 2 0 0 0 2.88.79l17.43-10.68a2 2 0 0 0 .69-2.67zm-13.08-2.2l-4.32-1.17 2.63-1.2zm-.73-2.79l3.24-1.48 1.41 2.48-3 1.37zM29 42l-1.89-2.7 2.48-1.41 2 2.92zm4.86 3l-5.67 11.44.89-12.67zm1 .27l4.73 1.3-10.33 9.97zm.52-.89l2.92-1.33 1.44 2.52zm2.21-4.58l3.39.93-2.27 1zm-5 .54l-1.65-2.37 4.28 1.17zm-6-1.91l-1.43-2 3.39.93zm-.3 1.32l1.83 2.63-4.35-1.19zm1.83 3.66L27.22 56l-3.86-13.79zm-2.59 10.26L18.81 41l3.43.94zM40.72 47l3.43.94-12.26 7.47zm.38-1l-1.89-3.31 2.72-1.24 3.23 5.66zM24 36.56L25.69 39l-3.31 1.9-4.13-1.13z" transform="translate(-16.21 -12.77)"/><g id="banknote" class="cls-2"><path class="cls-3" d="M145.32 19.64l-12-6.62a2.08 2.08 0 0 0-2 0 2 2 0 0 0-.78.72 1.87 1.87 0 0 0-.29.88 8.71 8.71 0 0 1-1.4 4.17 27.45 27.45 0 0 1-4.58 5 30.77 30.77 0 0 0-5.23 5.82 12.36 12.36 0 0 0-2 5.92 1.81 1.81 0 0 0 1 1.71l12 6.62a2.08 2.08 0 0 0 2 0 2 2 0 0 0 .78-.72 1.87 1.87 0 0 0 .29-.88 8.71 8.71 0 0 1 1.4-4.17 27.41 27.41 0 0 1 4.58-5 30.87 30.87 0 0 0 5.23-5.82 12.35 12.35 0 0 0 2-5.92 1.81 1.81 0 0 0-1-1.71zm-14.2 22.59l-12-6.62c.58-9.11 12.59-11.83 13.17-20.95l12 6.62c-.58 9.11-12.6 11.84-13.17 20.95z" transform="translate(-16.21 -12.77)"/><path class="cls-3" d="M134.87 26.55a2.72 2.72 0 0 0-1.08-.26 3.05 3.05 0 0 0-1 .15 3.74 3.74 0 0 0-.91.46c-.29.2-.59.42-.88.65-.67-.43-1.33-.85-2-1.23a1.16 1.16 0 0 1 .6-.48 2.37 2.37 0 0 1 .65-.1h.59a.56.56 0 0 0 .43-.23.62.62 0 0 0 .11-.5.73.73 0 0 0-.36-.47 1.31 1.31 0 0 0-.85-.21 2.52 2.52 0 0 0-.89.25 3.26 3.26 0 0 0-.79.55 3.5 3.5 0 0 0-.54.63l-.23-.12a.39.39 0 0 0-.28 0 .36.36 0 0 0-.23.19.32.32 0 0 0 0 .28.33.33 0 0 0 .18.2l.23.1a4.32 4.32 0 0 0-.37 1.08 3 3 0 0 0 0 1.05 1.88 1.88 0 0 0 .33.86 1.75 1.75 0 0 0 .76.58A2.39 2.39 0 0 0 130 30a5.24 5.24 0 0 0 1.86-1.09c.73.47 1.47.94 2.19 1.37a1.6 1.6 0 0 1-.55.5 1.1 1.1 0 0 1-.51.12 1.69 1.69 0 0 1-.47-.08 3.17 3.17 0 0 0-.44-.12 1 1 0 0 0-.41 0 .71.71 0 0 0-.38.29.59.59 0 0 0-.12.51.8.8 0 0 0 .38.45 2 2 0 0 0 .75.27 2.58 2.58 0 0 0 .93 0 2.63 2.63 0 0 0 1-.41 3.05 3.05 0 0 0 .89-1l.62.31a.37.37 0 0 0 .29 0 .37.37 0 0 0 .23-.2.35.35 0 0 0 0-.29.32.32 0 0 0-.18-.19l-.62-.27a5.1 5.1 0 0 0 .43-1.22 3.15 3.15 0 0 0 0-1.08 1.75 1.75 0 0 0-.34-.83 1.81 1.81 0 0 0-.68-.49zm-5.25 2a1 1 0 0 1-.79-.08.69.69 0 0 1-.27-.25.9.9 0 0 1-.14-.37 1.19 1.19 0 0 1 0-.46 1.77 1.77 0 0 1 .2-.51c.61.33 1.23.71 1.86 1.11a2.46 2.46 0 0 1-.86.58zm5 .65a2 2 0 0 1-.2.48c-.68-.38-1.37-.8-2.06-1.25l.39-.3a2.28 2.28 0 0 1 .44-.25 1.35 1.35 0 0 1 .48-.1 1 1 0 0 1 .51.13.86.86 0 0 1 .36.34 1.08 1.08 0 0 1 .13.44 1.48 1.48 0 0 1-.01.52zm-2.72 5.21a17.78 17.78 0 0 0-1.38 1.87 14 14 0 0 0-1 1.92l-.44 1a.45.45 0 0 0 .21.56.52.52 0 0 0 .69-.18.48.48 0 0 0 0-.11l.41-1a13.09 13.09 0 0 1 .94-1.78 15.61 15.61 0 0 1 1.36-1.69v-.05a.45.45 0 0 0-.17-.65.52.52 0 0 0-.62.11zm.1-14.13a16.37 16.37 0 0 1-1.26 1.72.47.47 0 0 0-.09.11.46.46 0 0 0 .17.65.53.53 0 0 0 .68-.16 17.92 17.92 0 0 0 1.37-1.87 14 14 0 0 0 1-1.92l.44-1a.45.45 0 0 0-.19-.62.52.52 0 0 0-.69.18.52.52 0 0 0-.06.13l-.43 1a12.91 12.91 0 0 1-.94 1.78z" transform="translate(-16.21 -12.77)"/></g><path class="cls-1" d="M131.75 128.45l-1.5-5.81-.13-.48-.63-2.42a3 3 0 0 0-3.66-2.15l-3.87 1-16 4.14a5.51 5.51 0 0 0-3.95 6.7l5 19.36a5.51 5.51 0 0 0 6.7 3.95l17.43-4.51a5.51 5.51 0 0 0 3.95-6.7l-.38-1.45a7.5 7.5 0 0 0-2.96-11.63zm-25.26-3.79l16-4.14 3.87-1a1 1 0 0 1 1.22.72l.63 2.42.13.48.8 3.08a3 3 0 0 0-1 .07l-.25-1-.5-1.94-.5-1.94a1 1 0 0 0-1.22-.72L105.29 126a1 1 0 0 0-.72 1.22l.5 1.94.49 1.88a3.5 3.5 0 0 1 .93-6.38zm19.63-2l-20.33 5.26-.25-1 20.33-5.26zm.25 1l.25 1-20.33 5.26-.25-1zm.5 1.94l.25 1-2.9.75-16 4.14a3.47 3.47 0 0 1-1.54 0l-.16-.63zm6.33 16.4a3.5 3.5 0 0 1-2.51 4.27l-17.43 4.51a3.5 3.5 0 0 1-4.27-2.51L105 133a5.47 5.47 0 0 0 3.7.34l16-4.14 3.87-1a1 1 0 0 1 1.22.72l.5 1.94-8.71 2.26a5 5 0 1 0 2.51 9.68l8.71-2.26zm.36-3.71l-9.95 2.58a3 3 0 1 1-1.5-5.81l8.71-2.26a2.06 2.06 0 0 0 1.35-1.18 2 2 0 0 0 .13-.51v-.07a5.51 5.51 0 0 1 1.25 7.24z" transform="translate(-16.21 -12.77)"/><path id="star" class="cls-1" d="M102.15 66.45a2.3 2.3 0 0 0-2.16-1l-8.37.89-5.4-6.34a2.34 2.34 0 0 0-4.05 1l-1.62 8.2-7.75 3.28a2.3 2.3 0 0 0-1.4 1.92 2.21 2.21 0 0 0 1.09 2.08l7.43 4.37.75 8.54a2.23 2.23 0 0 0 1.47 1.9 2.36 2.36 0 0 0 2.4-.49l6-5.6 8 2a2.36 2.36 0 0 0 2.34-.74 2.23 2.23 0 0 0 .37-2.37l-3.49-7.83 4.38-7.43a2.21 2.21 0 0 0 .01-2.38zm-6.32 8.67a2.21 2.21 0 0 0-.12 2L99.19 85l-8-2a2.36 2.36 0 0 0-2.16.56l-6 5.6-.75-8.54a2.21 2.21 0 0 0-1.09-1.71l-7.49-4.36 7.75-3.29a2.31 2.31 0 0 0 1.37-1.66l1.62-8.18 5.39 6.37a2.31 2.31 0 0 0 2 .79l8.37-.89z" transform="translate(-16.21 -12.77)"/><g id="data" class="cls-2"><path class="cls-4" d="M40 122.89c-5.81 3.43-11 8.87-8.75 12.72L40.92 152c2.27 3.84 9.55 1.91 15.36-1.52s11-8.87 8.75-12.72l-9.66-16.36c-2.27-3.88-9.56-1.94-15.37 1.49zm23.3 15.86c1.26 2.14-2.34 6.61-8 10s-11.39 4.34-12.66 2.25l-1.9-3.22c2.86.78 7.72-.8 12-3.32s8-6 8.69-8.89zm-3.05-5.17c1.26 2.13-2.35 6.58-8.06 9.95s-11.35 4.38-12.61 2.25l-1.9-3.22c2.86.78 7.72-.8 12-3.32s8-6 8.69-8.89zm-3.05-5.17c1.26 2.13-2.35 6.58-8.06 9.95s-11.35 4.38-12.61 2.25l-1.75-3c3.27.39 7.89-1.25 11.83-3.57s7.6-5.58 8.84-8.63zm-11.6 3.95c-5.71 3.37-11.36 4.37-12.62 2.23s2.34-6.61 8-10 11.36-4.37 12.62-2.23-2.29 6.64-8 10z" transform="translate(-16.21 -12.77)"/></g><path id="shop" class="cls-1" d="M170 76.42l-3-4a3 3 0 0 0-.4-.42v-4.79a2 2 0 0 0-2-2h-20a2 2 0 0 0-2 2V72a3 3 0 0 0-.4.42l-3 4a3 3 0 0 0-.6 1.8v1a3 3 0 0 0 3 3v13a2 2 0 0 0 2 2h22a2 2 0 0 0 2-2v-13a3 3 0 0 0 3-3v-1a3 3 0 0 0-.6-1.8zm-5.39-9.21v4h-20v-4zm-15.82 13h-4.19l4-7h2.19zm3-7h2.27v7h-4.27zm3.27 0h2.27l2 7h-4.27zm3.31 0h2.19l4 7h-4.19zm-17.81 6v-1a1 1 0 0 1 .2-.6l3-4a1 1 0 0 1 .8-.4h2.85l-4 7h-1.85a1 1 0 0 1-.92-1.02zm18 16h-7.5v-10h7.5zm7 0h-6v-10a1 1 0 0 0-1-1h-7.5a1 1 0 0 0-1 1v10h-6.5v-13h22zm3-16a1 1 0 0 1-1 1h-1.85l-4-7h2.85a1 1 0 0 1 .8.4l3 4a1 1 0 0 1 .2.6z" transform="translate(-16.21 -12.77)"/></svg>