<svg xmlns="http://www.w3.org/2000/svg" width="18" height="26" viewBox="0 0 18 26"><defs><style>.cls-1{fill:#fff;fill-rule:evenodd;filter:url(#filter)}</style><filter id="filter" x="991" y="2506" width="18" height="26" filterUnits="userSpaceOnUse"><feFlood result="flood" flood-color="#f95b3c"/><feComposite result="composite" operator="in" in2="SourceGraphic"/><feBlend result="blend" in2="SourceGraphic"/></filter></defs><path id="iPhone_copy_2" data-name="iPhone copy 2" class="cls-1" d="M993.454 2506h13.1a2.445 2.445 0 0 1 2.45 2.44v21.12a2.445 2.445 0 0 1-2.45 2.44h-13.1a2.446 2.446 0 0 1-2.454-2.44v-21.12a2.446 2.446 0 0 1 2.454-2.44zm.819 1.62h11.457a1.63 1.63 0 0 1 1.63 1.63v19.5a1.622 1.622 0 0 1-1.63 1.62h-11.457a1.625 1.625 0 0 1-1.637-1.62v-19.5a1.634 1.634 0 0 1 1.637-1.63zm5.727 17.88a1.625 1.625 0 1 1-1.636 1.62 1.637 1.637 0 0 1 1.636-1.62zm-1.636-16.25h3.276a.81.81 0 1 1 0 1.62h-3.276a.81.81 0 1 1 0-1.62z" transform="translate(-991 -2506)"/></svg>