<svg xmlns="http://www.w3.org/2000/svg" width="18" height="26" viewBox="0 0 18 26"><defs><style>.cls-1{fill:#fff;fill-rule:evenodd}</style></defs><path id="iPhone" class="cls-1" d="M1042.45 44h13.1a2.446 2.446 0 0 1 2.45 2.438v21.124a2.446 2.446 0 0 1-2.45 2.438h-13.1a2.446 2.446 0 0 1-2.45-2.437V46.437a2.446 2.446 0 0 1 2.45-2.437zm.82 1.625h11.46a1.628 1.628 0 0 1 1.63 1.625v19.5a1.628 1.628 0 0 1-1.63 1.625h-11.46a1.628 1.628 0 0 1-1.63-1.625v-19.5a1.628 1.628 0 0 1 1.63-1.625zM1049 63.5a1.625 1.625 0 1 1-1.64 1.625A1.636 1.636 0 0 1 1049 63.5zm-1.64-16.25h3.28a.813.813 0 0 1 0 1.625h-3.28a.813.813 0 0 1 0-1.625z" transform="translate(-1040 -44)"/></svg>