<svg xmlns="http://www.w3.org/2000/svg" width="51" height="48" viewBox="0 0 51 48"><defs><style>.cls-1,.cls-2{fill:#b4b4b4;fill-rule:evenodd}.cls-1{filter:url(#filter)}.cls-2{filter:url(#filter-2)}</style><filter id="filter" x="584" y="1997" width="40.813" height="39.44" filterUnits="userSpaceOnUse"><feFlood result="flood" flood-color="#fff"/><feComposite result="composite" operator="in" in2="SourceGraphic"/><feBlend result="blend" in2="SourceGraphic"/></filter><filter id="filter-2" x="601.844" y="2012.44" width="33.156" height="32.56" filterUnits="userSpaceOnUse"><feFlood result="flood" flood-color="#fff"/><feComposite result="composite" operator="in" in2="SourceGraphic"/><feBlend result="blend" in2="SourceGraphic"/></filter></defs><path id="bubbles" class="cls-1" d="M588.25 2036.43a.861.861 0 0 1-.6-1.47 15.411 15.411 0 0 0 3.955-8.36c-4.98-3.12-7.608-7.56-7.608-12.86 0-9.23 9.151-16.74 20.4-16.74s20.4 7.51 20.4 16.74c0 9.2-9.149 16.69-20.4 16.69h-3.937c-4.444 5.36-11.829 5.97-12.147 6h-.063zm16.149-37.72c-10.31 0-18.7 6.74-18.7 15.03 0 4.82 2.5 8.85 7.232 11.66a.871.871 0 0 1 .416.8 16.111 16.111 0 0 1-3 8.14c2.453-.57 6.448-1.97 9.037-5.3a.843.843 0 0 1 .669-.33h4.347c10.311 0 18.7-6.71 18.7-14.97 0-8.29-8.39-15.03-18.7-15.03z" transform="translate(-584 -1997)"/><path id="bubbles-2" data-name="bubbles" class="cls-2" d="M630.75 2045h-.063c-.318-.03-7.7-.64-12.148-6H614.6c-5.075 0-9.248-1.21-12.406-3.6a.86.86 0 0 1-.17-1.2.839.839 0 0 1 1.19-.17c2.858 2.16 6.69 3.26 11.391 3.26h4.344a.863.863 0 0 1 .669.32c2.589 3.33 6.584 4.73 9.037 5.31a16.151 16.151 0 0 1-3-8.15.845.845 0 0 1 .416-.79c4.731-2.82 7.232-6.85 7.232-11.67 0-2.28-1.489-5.87-4.76-8.34a.86.86 0 0 1-.17-1.2.848.848 0 0 1 1.19-.17c3.758 2.84 5.44 6.92 5.44 9.71 0 5.3-2.628 9.74-7.609 12.86a15.369 15.369 0 0 0 3.956 8.36.873.873 0 0 1 .177.97.861.861 0 0 1-.777.5z" transform="translate(-584 -1997)"/></svg>