<svg xmlns="http://www.w3.org/2000/svg" viewBox="0 0 940.253 1010"><path fill="none" d="M845.213 563.546c-35.509 0-65.451-30.049-68.2-68.427l-1.336-18.635h139.002l-1.304 18.635c-2.748 38.378-32.69 68.427-68.162 68.427z"/><path fill="none" d="M771.942 251.602h141.607v224.883H771.942zm-150.52 0h150.52v224.883h-150.52z"/><path fill="none" d="M695.784 563.546c-35.473 0-65.414-30.049-68.18-68.427l-1.34-18.635h139.09l-1.337 18.67c-2.82 38.343-32.797 68.392-68.233 68.392zM470.126 251.602h151.296v224.883H470.126z"/><path fill="none" d="M546.41 563.546c-35.494 0-65.452-30.066-68.181-68.427l-1.323-18.635h138.985l-1.338 18.635c-2.784 38.378-32.69 68.427-68.144 68.427zM320.327 251.602h149.799v224.883H320.327z"/><path fill="none" d="M397.032 563.546c-35.49 0-65.467-30.049-68.215-68.427l-1.32-18.635h139.036l-1.322 18.635c-2.8 38.378-32.707 68.427-68.179 68.427zm-227.26-311.944h150.556v224.883H169.772z"/><path fill="none" d="M247.62 563.546c-35.507 0-65.467-30.066-68.18-68.427l-1.32-18.635h139.054l-1.338 18.653c-2.8 38.36-32.76 68.409-68.215 68.409zm-20.976-545.51H713.59v163.131H226.644zM26.719 251.602h143.052v224.883H26.719z"/><path fill="none" d="M98.21 563.546c-36.318 0-69.043-31.07-71.456-67.845l-.035-19.217h141.045l-1.34 18.653c-2.764 38.36-32.741 68.409-68.214 68.409z"/><path fill="none" d="M557.063 938.016V640.885H383.188v297.13H52.803V551.112L76 559.336c7.979 2.836 15.253 4.21 22.21 4.21 24.358 0 47.097-14.356 59.356-37.428l15.358-28.92 15.359 28.938c12.258 23.054 34.98 37.41 59.338 37.41 24.341 0 47.062-14.356 59.32-37.41l15.376-28.904 15.36 28.904c12.258 23.054 35.014 37.41 59.355 37.41 24.323 0 47.062-14.356 59.303-37.41l15.393-28.956 15.36 28.956c12.205 23.054 34.962 37.41 59.321 37.41 24.322 0 47.078-14.356 59.303-37.445l15.356-28.974 15.36 28.956c12.26 23.107 35.013 37.463 59.356 37.463 24.34 0 47.096-14.356 59.356-37.428l15.358-28.92 15.357 28.938c12.224 23.054 34.98 37.41 59.358 37.41 5.953 0 12.153-1.11 19.443-3.523l22.791-7.468v385.46H557.063z"/><path fill="none" d="M383.188 640.885h173.875v297.131H383.188zM18.035 938.016h904.181v53.948H18.035zm617.283-294.068h191.259v208.98H635.318zm-521.644-.95h191.26v210.898h-191.26z"/><path fill="#ec5f2d" d="M70.84 931.023H34.768V545.704H70.84v385.319zm834.643 0h-36.07V545.704h36.07v385.319zM575.1 952.212h-36.073V658.92H401.224v293.292h-36.072V622.849H575.1v329.363z"/><path fill="#ec5f2d" d="M522.86 805.742h-36.072v-33.078h36.071v33.078zm408.726-329.258h-36.07V269.638H44.754v206.846H8.683V233.566h922.903v242.918z"/><path fill="#ec5f2d" d="M845.213 581.582c-31.635 0-59.657-18.424-74.715-45.952-15.096 27.528-43.116 45.952-74.714 45.952-31.615 0-59.637-18.441-74.698-45.988-15.06 27.547-43.063 45.988-74.677 45.988-31.635 0-59.638-18.424-74.698-45.952-15.077 27.528-43.1 45.952-74.679 45.952-31.615 0-59.638-18.424-74.715-45.935-15.093 27.511-43.098 45.935-74.696 45.935-31.616 0-59.638-18.424-74.697-45.935-15.076 27.511-43.099 45.935-74.714 45.935-46.304 0-86.445-38.538-89.492-85.881l-.035-37.252h922.903l-.14 36.159c-3.154 49.247-41.022 86.974-86.233 86.974zm-50.145-87.061c2.36 28.69 24.183 50.989 50.145 50.989 25.907 0 47.73-22.298 50.126-50.99h-100.27zm-149.393 0c2.378 28.69 24.182 50.989 50.11 50.989 25.925 0 47.766-22.298 50.178-50.99H645.675zm-149.395 0c2.36 28.69 24.183 50.989 50.13 50.989 25.906 0 47.71-22.298 50.107-50.99H496.28zm-149.41 0c2.378 28.69 24.218 50.989 50.162 50.989 25.909 0 47.714-22.298 50.126-50.99H346.87zm-149.376 0c2.36 28.69 24.183 50.989 50.127 50.989 25.926 0 47.749-22.298 50.161-50.99H197.494zm-152.74 0v.017c1.78 27.098 26.279 50.972 53.456 50.972 25.944 0 47.784-22.298 50.18-50.99H44.754z"/><path fill="#ec5f2d" d="M187.807 493.798h-36.071V251.602h36.071v242.196zm150.556 0h-36.072V251.602h36.072v242.196zm301.093 0h-36.07V251.602h36.07v242.196zm150.521 0h-36.07V251.602h36.07v242.196zm-301.815 0H452.09V251.602h36.072v242.196zM940.253 1010H0v-90.02h940.253V1010zM36.072 973.929H904.18v-17.877H36.072v17.877zm808.542-102.966H617.282v-245.05h227.332v245.05zm-191.261-36.071H808.54V661.985H653.353v172.907zm-330.384 37.04H95.639v-246.97h227.33v246.97zM131.71 835.86h155.188V661.034H131.71V835.86z"/><g fill="#ec5f2d"><path d="M338.363 260.091h-36.072V192h36.072v68.091zm301.093 22.14h-36.07V192h36.07v90.231z"/><path d="M713.59 199.203H226.644c-9.952 0-18.036-8.076-18.036-18.036V18.036c0-9.96 8.084-18.036 18.036-18.036H713.59c9.97 0 18.036 8.076 18.036 18.036v163.131c0 9.96-8.066 18.036-18.036 18.036zm-468.91-36.071h450.876V36.072H244.68v127.06z"/></g><path fill="#ec5f2d" d="M654.886 114.397H285.383V78.325h369.503v36.072zM205.42 811.924c-4.615 0-9.23-1.76-12.751-5.284-7.046-7.045-7.046-18.458 0-25.503l42.446-42.466c7.028-7.044 18.46-7.044 25.504 0 7.046 7.028 7.046 18.46 0 25.504l-42.447 42.465c-3.505 3.523-8.137 5.284-12.752 5.284zm-37.709-25.098c-4.615 0-9.23-1.762-12.752-5.284-7.045-7.045-7.045-18.477 0-25.504l61.945-61.927c7.045-7.045 18.458-7.045 25.503 0 7.046 7.044 7.046 18.476 0 25.504l-61.945 61.927a17.977 17.977 0 0 1-12.751 5.284zm563.757 21.24c-4.616 0-9.23-1.76-12.752-5.283-7.047-7.027-7.047-18.459 0-25.504l42.447-42.464c7.028-7.045 18.458-7.045 25.504 0 7.046 7.045 7.046 18.458 0 25.503l-42.447 42.465c-3.505 3.523-8.137 5.283-12.752 5.283zm-40.721-21.24a17.974 17.974 0 0 1-12.752-5.284c-7.046-7.045-7.046-18.477 0-25.504l61.945-61.927c7.045-7.045 18.457-7.045 25.503 0 7.046 7.044 7.046 18.476 0 25.504l-61.946 61.927a17.972 17.972 0 0 1-12.75 5.284z"/></svg>