<svg xmlns="http://www.w3.org/2000/svg" viewBox="0 0 1010.0004 859.8921"><path fill="#ec5f2d" d="M17.92 859.892c-1.698 0-3.43-.244-5.144-.752-9.483-2.852-14.853-12.84-12.02-22.306L37.322 714.88c2.973-9.972 11.966-16.708 22.375-16.743h.07c10.41 0 19.419 6.684 22.463 16.656l19.436 64.817 19.42-64.748c2.974-9.954 11.966-16.69 22.393-16.725h.07c10.409 0 19.436 6.684 22.48 16.656l19.419 64.817 19.401-64.73c3.063-10.06 12.09-16.743 22.499-16.743h.227c10.462.105 19.401 6.928 22.27 16.971l19.384 64.52 19.42-64.766c2.973-9.988 12.018-16.725 22.462-16.725 10.445 0 19.489 6.737 22.464 16.76l19.436 64.766 19.436-64.801c2.887-9.884 11.861-16.653 22.288-16.725 10.112.42 19.559 6.63 22.62 16.656l12.65 42.143c12.018 40.15 48.284 67.127 90.218 67.127 35.988 0 81.089-9.499 91.654-54.706 2.24-9.638 11.914-15.64 21.518-13.365 9.64 2.24 15.623 11.879 13.366 21.52-12.402 53.112-57.345 82.38-126.538 82.38-57.889 0-107.94-37.246-124.543-92.651l-.77-2.571-19.418 64.747c-2.974 9.99-12.02 16.742-22.48 16.742-10.463 0-19.508-6.752-22.499-16.794l-19.402-64.678-19.419 64.73c-2.973 9.99-12 16.742-22.463 16.742-10.461 0-19.489-6.752-22.48-16.794l-19.42-64.678-19.4 64.73c-2.974 9.99-12.02 16.742-22.481 16.742-10.462 0-19.506-6.752-22.497-16.794l-19.385-64.714-19.436 64.766c-2.975 9.99-12.002 16.742-22.464 16.742-10.462 0-19.488-6.752-22.48-16.794l-19.401-64.661L35.08 847.12c-2.327 7.75-9.447 12.771-17.162 12.771z"/><path fill="#ec5f2d" d="M626.03 780.046c-63.348 0-178.41-39.572-366.931-228.092C-30.261 262.628 21.366 148.44 56.985 112.77l64.082-64.048c14.73-14.713 34.307-22.813 55.09-22.813 24.283 0 46.711 10.986 61.564 30.16l78.026 100.21c22.13 28.358 21.972 67.93-.403 96.202l-17.53 22.27c-13.278 16.795-11.878 40.833 3.238 55.966l179.283 179.336c14.713 14.66 39.626 16.148 56.017 3.22l22.236-17.582c27.274-21.589 68.841-21.693 96.256-.35l100.242 78.026c17.619 13.697 28.517 34.341 29.917 56.63 1.399 22.322-6.877 44.208-22.672 60.04l-64.047 64.012c-11.863 11.863-34.03 25.997-72.253 25.997zM176.158 61.738c-11.231 0-21.798 4.391-29.758 12.334l-64.065 64.03C39.35 181.121 66.484 308.709 284.43 526.621c189.327 189.327 295.29 217.597 341.6 217.597 25.96 0 39.834-8.432 46.92-15.5l64.029-64.012a42.256 42.256 0 0 0 12.263-32.47 42.087 42.087 0 0 0-16.164-30.599l-100.244-78.025c-14.957-11.653-37.176-11.546-52.029.174l-22.252 17.6c-13.733 10.828-30.914 16.795-48.39 16.795-20.836 0-40.413-8.083-55.143-22.778L275.719 356.049c-27.973-27.974-30.563-72.463-6.036-103.48l17.53-22.289c12.124-15.307 12.228-36.668.28-51.976L209.415 78.043c-8.03-10.374-20.137-16.305-33.258-16.305z"/><path fill="#ec5f2d" d="M650.978 454.508c-2.171 0-4.357-.402-6.456-1.207a17.915 17.915 0 0 1-11.46-16.707v-67.372H581.21c-31.28 0-56.717-25.42-56.717-56.664V56.682C524.492 25.944 550.47 0 581.209 0h372.074C984.563 0 1010 25.42 1010 56.682v255.876c0 31.245-25.436 56.664-56.717 56.664H736.437l-72.198 79.426a17.973 17.973 0 0 1-13.261 5.86zm-69.769-418.68c-11.126 0-20.89 9.745-20.89 20.854v255.876c0 11.283 9.571 20.836 20.89 20.836h69.769c9.901 0 17.913 8.012 17.913 17.914v38.942l46.361-50.996a17.875 17.875 0 0 1 13.261-5.86h224.77c11.32 0 20.89-9.553 20.89-20.836V56.682c0-11.302-9.57-20.854-20.89-20.854H581.209z"/></svg>